<svg width="368" height="80" viewBox="0 0 368 80" fill="none" xmlns="http://www.w3.org/2000/svg">
<path opacity="0.5" d="M55.9733 63.3573L8.13333 30.3573C3.28533 27.0133 4.93333 20.0505 10.9787 18.4132L61.824 4.61321C62.9011 4.22457 64.0552 4.09841 65.1909 4.24521C66.3264 4.39201 67.4107 4.80753 68.3536 5.45729C69.2963 6.10705 70.0707 6.9723 70.612 7.98124C71.1533 8.99017 71.4464 10.1137 71.4667 11.2585L68.4533 58.0559C68.096 63.6106 60.8213 66.7013 55.9733 63.3573Z" fill="#F9ECD6"/>
<path opacity="0.8" d="M40.8 71.5041L12.6159 16.3869C11.9717 15.1259 11.6882 13.7116 11.7967 12.2998C11.9052 10.8879 12.4015 9.53352 13.2309 8.38587C14.0603 7.23821 15.1905 6.34189 16.4969 5.79576C17.8033 5.24963 19.2352 5.07491 20.6346 5.29088L72.8667 13.3522C74.0691 13.5378 75.2104 14.0062 76.1968 14.7189C77.1829 15.4316 77.9859 16.3682 78.5397 17.4517C79.0933 18.5351 79.3821 19.7346 79.3819 20.9514C79.3816 22.1682 79.0925 23.3675 78.5387 24.4509L54.4773 71.5068C53.8312 72.7641 52.8509 73.819 51.6443 74.5553C50.4376 75.2918 49.0515 75.6812 47.6379 75.6809C46.2243 75.6806 44.8381 75.2908 43.6317 74.554C42.4253 73.8169 41.4456 72.7617 40.8 71.5041Z" fill="#F9ECD6"/>
<path d="M71.3387 13.1146L45.3013 9.09595L13.3333 17.7759L26.0933 42.7386L55.9733 63.3573C56.6325 63.8071 57.3576 64.1517 58.1227 64.3786L69.472 42.1839L71.3387 13.1146Z" fill="#F9ECD6"/>
<path d="M203.224 19.5574C203.224 18.5896 203.511 17.6435 204.049 16.8388C204.586 16.0341 205.351 15.4069 206.245 15.0365C207.139 14.6662 208.123 14.5693 209.072 14.7581C210.021 14.9469 210.893 15.413 211.577 16.0973C212.262 16.7816 212.728 17.6535 212.917 18.6027C213.105 19.552 213.009 20.5359 212.638 21.43C212.268 22.3241 211.641 23.0884 210.836 23.6261C210.031 24.1637 209.085 24.4507 208.117 24.4507C206.823 24.4375 205.587 23.9178 204.672 23.0029C203.757 22.0881 203.237 20.8511 203.224 19.5574ZM204.04 26.8427H212.197V54.0267H204.04V26.8427Z" fill="#F9ECD6"/>
<path d="M247.424 40.4347C247.519 42.2315 247.257 44.0293 246.655 45.7248C246.052 47.42 245.12 48.9797 243.913 50.3139C242.706 51.6477 241.246 52.7299 239.619 53.4981C237.992 54.2661 236.229 54.7051 234.432 54.7893C232.92 54.8715 231.409 54.6165 230.007 54.0429C228.606 53.4691 227.35 52.5909 226.33 51.472V64.9013H218.176V26.8427H226.33V29.3973C227.351 28.2787 228.607 27.4011 230.008 26.8277C231.409 26.2545 232.92 26 234.432 26.0826C236.229 26.1666 237.992 26.6051 239.619 27.3728C241.246 28.1408 242.705 29.2227 243.913 30.5565C245.12 31.8904 246.052 33.4496 246.655 35.1451C247.257 36.8403 247.519 38.6379 247.424 40.4347ZM239.269 40.4347C239.237 39.1619 238.83 37.9269 238.1 36.884C237.37 35.8413 236.348 35.0371 235.163 34.5723C233.977 34.1072 232.681 34.0024 231.437 34.2704C230.192 34.5384 229.054 35.1675 228.165 36.0789C227.277 36.9904 226.676 38.144 226.44 39.3949C226.203 40.6459 226.341 41.9389 226.836 43.112C227.33 44.2851 228.16 45.2861 229.221 45.9901C230.282 46.6941 231.527 47.0693 232.8 47.0693C233.674 47.1088 234.547 46.9627 235.361 46.6411C236.174 46.3192 236.911 45.8288 237.522 45.2024C238.133 44.5757 238.604 43.8272 238.906 43.0053C239.207 42.1837 239.331 41.3075 239.269 40.4347Z" fill="#F9ECD6"/>
<path d="M272.595 45.8667C272.595 52.12 267.157 54.784 261.286 54.784C258.914 54.9987 256.531 54.4965 254.448 53.3427C252.364 52.1891 250.675 50.4365 249.598 48.312L256.664 44.2907C256.952 45.2728 257.567 46.1264 258.409 46.7088C259.25 47.2912 260.265 47.5672 261.286 47.4907C263.243 47.4907 264.219 46.8907 264.219 45.8053C264.219 42.8133 250.846 44.392 250.846 34.984C250.846 29.0587 255.846 26.0693 261.512 26.0693C263.638 26.0026 265.742 26.507 267.605 27.5299C269.472 28.5528 271.027 30.0568 272.112 31.8853L265.155 35.6373C264.851 34.9237 264.343 34.3155 263.695 33.8888C263.047 33.4619 262.288 33.2355 261.512 33.2373C260.099 33.2373 259.23 33.7707 259.23 34.76C259.222 37.88 272.595 35.8133 272.595 45.8667Z" fill="#F9ECD6"/>
<path d="M302.4 26.8428V54.0268H294.245V51.4668C293.304 52.5945 292.107 53.483 290.755 54.0598C289.405 54.6364 287.936 54.8846 286.469 54.7841C280.979 54.7841 276.304 50.8694 276.304 43.5281V26.8428H284.459V42.3388C284.389 42.9868 284.464 43.642 284.675 44.2585C284.885 44.875 285.227 45.4385 285.677 45.9094C286.128 46.3804 286.675 46.7473 287.28 46.9849C287.888 47.2228 288.539 47.3252 289.189 47.2854C292.179 47.2854 294.256 45.5468 294.256 41.6854V26.8428H302.4Z" fill="#F9ECD6"/>
<path d="M349.141 37.3333V54.0267H340.987V38.0427C340.987 35.3253 339.68 33.584 337.072 33.584C334.352 33.584 332.832 35.488 332.832 38.696V54.0267H324.675V38.0427C324.675 35.3253 323.371 33.584 320.76 33.584C318.043 33.584 316.52 35.488 316.52 38.696V54.0267H308.365V26.8427H316.533V29.3333C317.379 28.2243 318.488 27.3448 319.76 26.7749C321.032 26.2053 322.429 25.9636 323.819 26.072C325.213 26.0038 326.605 26.2983 327.853 26.9269C329.101 27.5555 330.165 28.4965 330.941 29.6587C331.845 28.4429 333.043 27.476 334.421 26.8488C335.8 26.2215 337.317 25.9543 338.827 26.072C345.067 26.0827 349.141 30.5387 349.141 37.3333Z" fill="#F9ECD6"/>
<path d="M356.051 26.6748C359.395 26.6748 362.104 23.9646 362.104 20.6214C362.104 17.2783 359.395 14.5681 356.051 14.5681C352.707 14.5681 349.997 17.2783 349.997 20.6214C349.997 23.9646 352.707 26.6748 356.051 26.6748Z" fill="#F9ECD6"/>
<path d="M91.8853 14.3386H100.043V54.0268H91.8853V14.3386ZM104.661 40.4348C104.653 37.5846 105.489 34.7961 107.066 32.4222C108.643 30.0481 110.889 28.1953 113.519 27.0985C116.15 26.0016 119.046 25.71 121.843 26.2605C124.639 26.811 127.209 28.1788 129.228 30.191C131.246 32.203 132.622 34.7686 133.181 37.5633C133.741 40.358 133.458 43.2556 132.37 45.8894C131.281 48.5233 129.435 50.775 127.066 52.3593C124.697 53.9436 121.911 54.7894 119.061 54.7894C117.169 54.8094 115.291 54.4524 113.537 53.7388C111.784 53.0252 110.191 51.9692 108.85 50.6329C107.509 49.2964 106.449 47.7062 105.729 45.9553C105.01 44.2044 104.647 42.3276 104.661 40.4348ZM125.323 40.4348C125.291 39.2052 124.897 38.0126 124.191 37.006C123.485 35.9993 122.497 35.223 121.352 34.7745C120.207 34.3262 118.955 34.2252 117.753 34.4846C116.551 34.7438 115.452 35.3521 114.593 36.2326C113.735 37.1134 113.155 38.2276 112.927 39.4358C112.699 40.6444 112.831 41.8932 113.309 43.0265C113.787 44.1596 114.588 45.1268 115.613 45.807C116.637 46.4873 117.84 46.8502 119.069 46.8508C119.911 46.8748 120.75 46.7238 121.53 46.4078C122.311 46.0921 123.018 45.6177 123.607 45.0148C124.195 44.4121 124.653 43.694 124.95 42.9057C125.247 42.1172 125.378 41.2758 125.333 40.4348H125.323ZM165.987 26.8348V52.6614C165.987 61.7948 158.864 65.6534 151.635 65.6534C149.09 65.8454 146.542 65.3332 144.269 64.1726C141.996 63.0124 140.086 61.2484 138.749 59.0748L145.707 55.0508C146.268 56.1852 147.163 57.1212 148.271 57.7337C149.379 58.346 150.647 58.6054 151.907 58.4774C152.711 58.587 153.529 58.515 154.301 58.2662C155.073 58.0174 155.78 57.5988 156.369 57.0404C156.957 56.4822 157.413 55.799 157.702 55.0409C157.991 54.283 158.107 53.4697 158.04 52.6614V50.1601C157.085 51.3281 155.869 52.2561 154.491 52.8697C153.112 53.4833 151.609 53.7654 150.101 53.6934C146.513 53.5817 143.109 52.078 140.611 49.5004C138.112 46.9228 136.715 43.474 136.715 39.8841C136.715 36.294 138.112 32.8452 140.611 30.2676C143.109 27.69 146.513 26.1861 150.101 26.0746C151.609 26.0025 153.112 26.2845 154.491 26.8982C155.869 27.5118 157.085 28.4398 158.04 29.6081V26.8348H165.987ZM158.051 39.8828C158.105 38.5697 157.764 37.2708 157.074 36.1526C156.383 35.0345 155.374 34.1484 154.176 33.6084C152.978 33.0684 151.646 32.899 150.351 33.1222C149.056 33.3454 147.858 33.9508 146.909 34.8606C145.961 35.7705 145.307 36.943 145.03 38.2276C144.754 39.5124 144.868 40.8502 145.358 42.0697C145.848 43.2889 146.692 44.3337 147.78 45.0697C148.869 45.8057 150.153 46.1993 151.467 46.2001C152.323 46.2601 153.183 46.1404 153.991 45.8484C154.799 45.5564 155.537 45.0985 156.157 44.5041C156.777 43.91 157.266 43.1924 157.592 42.398C157.918 41.6033 158.074 40.7492 158.051 39.8908V39.8828ZM170.605 40.4161C170.597 37.566 171.433 34.7774 173.01 32.4036C174.587 30.0294 176.833 28.1766 179.463 27.0798C182.094 25.983 184.99 25.6913 187.787 26.2418C190.583 26.7924 193.153 28.1601 195.172 30.1724C197.19 32.1844 198.566 34.75 199.125 37.5446C199.685 40.3393 199.402 43.2369 198.314 45.8708C197.225 48.5046 195.379 50.7564 193.01 52.3406C190.641 53.9249 187.855 54.7708 185.005 54.7708C183.114 54.7908 181.238 54.4342 179.486 53.7217C177.734 53.0094 176.141 51.955 174.801 50.6206C173.46 49.2862 172.399 47.6985 171.679 45.9494C170.958 44.2006 170.594 42.326 170.605 40.4348V40.4161ZM191.267 40.4161C191.235 39.186 190.842 37.9924 190.135 36.9846C189.429 35.9772 188.441 35.2004 187.295 34.7513C186.15 34.3022 184.897 34.2012 183.694 34.4606C182.491 34.7198 181.391 35.3284 180.533 36.2094C179.674 37.0908 179.094 38.2057 178.866 39.4148C178.637 40.6238 178.77 41.8737 179.249 43.0073C179.727 44.1412 180.529 45.1086 181.554 45.7892C182.58 46.4694 183.783 46.8321 185.013 46.8321C185.853 46.8542 186.688 46.703 187.466 46.3876C188.245 46.0721 188.95 45.599 189.537 44.9985C190.124 44.398 190.581 43.6825 190.878 42.8972C191.176 42.1118 191.308 41.2734 191.267 40.4348V40.4161Z" fill="#F9ECD6"/>
</svg>
